<svg xmlns="http://www.w3.org/2000/svg" viewBox="8999 339.062 55.387 55.386"><defs><style>.a{fill:#95989a;}</style></defs><g transform="translate(7967)"><path class="a" d="M416.444,1029.01H390.817a.828.828,0,0,1-.718-.4.755.755,0,0,1,0-.755l12.819-23.238a.828.828,0,0,1,.73-.421h0a.828.828,0,0,1,.73.421l12.844,23.226a.756.756,0,0,1,0,.755.829.829,0,0,1-.78.408Zm-25.033-1.163h24.451l-12.25-22.149Zm11.941-22.681Z" transform="translate(656.001 -652.343)"/><path class="a" d="M401.559,1023.844a.581.581,0,0,1-.495-.285l-2.995-5.011a.582.582,0,0,1,.99-.594l2.475,4.133,8.39-16.086a.582.582,0,1,1,1.027.532l-8.86,16.965a.58.58,0,0,1-.495.309Z" transform="translate(657.905 -652.003)"/><path class="a" d="M329.373,1049.246a27.693,27.693,0,1,1,27.693-27.693A27.693,27.693,0,0,1,329.373,1049.246Zm0-54.223a26.53,26.53,0,1,0,26.53,26.53A26.53,26.53,0,0,0,329.373,995.023Z" transform="translate(730.321 -654.798)"/></g></svg>