<svg xmlns="http://www.w3.org/2000/svg" viewBox="9195.409 339.533 55.387 55.386"><defs><style>.a{fill:#95989a;}</style></defs><g transform="translate(7960)"><g transform="translate(115 -247)"><path class="a" d="M561.253,1049.626a27.693,27.693,0,1,1,27.693-27.68A27.693,27.693,0,0,1,561.253,1049.626Zm0-54.223a26.53,26.53,0,1,0,26.53,26.53A26.53,26.53,0,0,0,561.253,995.4Z" transform="translate(586.849 -407.707)"/><path class="a" d="M546.642,1015.372a.581.581,0,0,1-.581-.581v-9.009a.582.582,0,0,1,1.163,0v9.008a.582.582,0,0,1-.582.582Z" transform="translate(589.816 -405.106)"/><path class="a" d="M546.642,1030.768a.581.581,0,0,1-.581-.582v-13.265a.582.582,0,0,1,1.163,0v13.265A.582.582,0,0,1,546.642,1030.768Z" transform="translate(589.816 -402.461)"/><path class="a" d="M551.4,1014.777a.582.582,0,0,1-.582-.582v-8.414a.582.582,0,0,1,1.163,0v8.414a.582.582,0,0,1-.581.582Z" transform="translate(590.946 -405.105)"/><path class="a" d="M551.4,1030.768a.581.581,0,0,1-.582-.582v-13.265a.582.582,0,1,1,1.163,0v13.265A.581.581,0,0,1,551.4,1030.768Z" transform="translate(590.946 -402.461)"/><path class="a" d="M556.212,1016.666a.582.582,0,0,1-.582-.582v-10.073a.582.582,0,0,1,1.163,0v10.023a.582.582,0,0,1-.582.631Z" transform="translate(592.089 -405.051)"/><path class="a" d="M556.23,1030.628a.581.581,0,0,1-.582-.569l-.1-11.137a.582.582,0,0,1,.569-.582h0a.581.581,0,0,1,.582.569l.1,11.137a.582.582,0,0,1-.569.581Z" transform="translate(592.07 -401.986)"/><path class="a" d="M560.972,1019.574a.582.582,0,0,1-.582-.581v-12.981a.582.582,0,0,1,1.163,0v12.981A.582.582,0,0,1,560.972,1019.574Z" transform="translate(593.219 -405.051)"/><path class="a" d="M560.972,1030.212a.581.581,0,0,1-.582-.581v-8.959a.582.582,0,0,1,1.163,0v8.959A.581.581,0,0,1,560.972,1030.212Z" transform="translate(593.219 -401.57)"/><path class="a" d="M565.681,1019.747a.582.582,0,0,1-.581-.581v-13.154a.582.582,0,1,1,1.163,0v13.141a.581.581,0,0,1-.582.594Z" transform="translate(594.337 -405.051)"/><path class="a" d="M565.682,1030.212a.581.581,0,0,1-.582-.581v-8.959a.582.582,0,0,1,1.163,0v8.959A.581.581,0,0,1,565.682,1030.212Z" transform="translate(594.337 -401.57)"/><path class="a" d="M568.589,1018.523a15.192,15.192,0,0,1-8.86-2.71c-7.424-5.209-16.854-.581-16.952-.544a.581.581,0,0,1-.52-1.039c.408-.21,10.109-4.95,18.14.618,7.326,5.123,15.95.817,16.086.768a.582.582,0,0,1,.532,1.027A20.411,20.411,0,0,1,568.589,1018.523Z" transform="translate(588.843 -403.456)"/><path class="a" d="M568.745,1022.27a16.5,16.5,0,0,1-9.6-2.945c-7.424-5.185-16.816.3-16.915.359a.582.582,0,0,1-.594-.99c.408-.248,10.134-5.927,18.177-.309,7.35,5.135,15.975,1.4,16.086,1.361a.582.582,0,0,1,.47,1.064,20.247,20.247,0,0,1-7.622,1.46Z" transform="translate(588.712 -402.562)"/></g></g></svg>