<?xml version="1.0" encoding="utf-8"?>
<!-- Generator: Adobe Illustrator 21.0.0, SVG Export Plug-In . SVG Version: 6.00 Build 0)  -->
<svg version="1.1" id="_x31_" xmlns="http://www.w3.org/2000/svg" xmlns:xlink="http://www.w3.org/1999/xlink" x="0px" y="0px"
	 viewBox="0 0 868.7 102" style="enable-background:new 0 0 868.7 102;" xml:space="preserve">
<style type="text/css">
	.st0{fill-rule:evenodd;clip-rule:evenodd;fill:#7F8184;}
	.st1{fill-rule:evenodd;clip-rule:evenodd;fill:#ECAC26;}
</style>
<path class="st0" d="M374.8,89.5c-0.2,0,0,0-0.2-0.5l-24.2-42.7c-2.6-4.8-5.3-9.6-8.2-14.4c-2.9-4.8-5.3-9.6-8.2-14.4
	c-2.6-4.8-5.3-9.8-7.9-14.6c-1.4-2.9-4.6-2.6-8.6-2.6c-3.6,0-7.7-0.5-9.8,1.4c-2.2,1.9-1.7,6-1.7,9.6v79c0,3.4-0.5,7.9,1.4,9.8
	c1.9,1.7,6,2.4,8.4,0.5c2.9-1.9,2.2-5,2.2-9.1V57.6c0-5.3-0.2-40.8,0-45.1l48.7,86.6c2.2,2.9,4.3,2.6,8.6,2.6c3.4,0,7.7,0.5,9.8-1.4
	c2.4-2.2,1.7-5.8,1.7-9.6v-79c0-3.6,0.7-7.7-1.4-9.8c-2.2-2.2-5.8-2.4-8.4-0.5c-2.4,1.7-2.2,5.3-2.2,9.1v33.8
	C374.8,59.3,375.3,74.6,374.8,89.5z"/>
<path class="st0" d="M868.7,97.9V4.6c-1-1.7-1.2-2.9-3.1-3.6c-3.1-1.7-7.7-0.5-8.6,3.4c-0.7,2.6,0.5,81.8-0.2,85.4l-16.3-29
	c-5.3-9.4-11-19.7-16.3-28.8c-4.8-7.9-11.5-20.6-16.1-29c-1.7-2.9-4.6-2.6-8.6-2.6c-3.6,0-7.4-0.7-9.8,1.4c-2.2,2.4-1.7,5.8-1.7,9.6
	v79c0,3.4-0.5,7.9,1.4,9.8c1.9,1.7,6,2.4,8.4,0.5c2.9-1.9,2.2-5.3,2.2-9.1c0-8.4-0.2-76.1,0-79c1.2,1.7,2.6,4.6,3.8,6.5
	c5.8,10.6,12.5,22.1,18.2,32.4c7,13,14.6,25.9,21.6,39.1c5.5,9.6,5.8,11.3,11.3,11.5l7.7-0.2C866.8,101.8,867.3,100.1,868.7,97.9z"
	/>
<path class="st0" d="M266.9,89.5c-0.5-0.5-0.7-1.2-1.2-1.7l-2.9-5.5c-9.6-16.8-19.4-33.8-28.6-50.4c-2.6-4.8-5.3-9.8-8.2-14.4
	l-7.9-14.6c-1.7-2.6-4.8-2.6-8.6-2.6c-3.6,0-7.4-0.5-9.8,1.4c-2.2,2.2-1.4,6-1.4,9.8v78.7c0,3.6-0.7,7.9,1.4,9.8
	c1.9,1.9,6,2.4,8.4,0.5c2.6-2.2,1.9-5.5,1.9-9.4V34.8c0-7.2-0.2-14.9,0-22.3c1.4,2.4,2.6,4.8,4.1,7.2c1.4,2.4,2.9,4.8,4.1,7.2
	c5.3,9.8,11,19,16.3,28.8c2.6,5,5.5,9.6,8.2,14.4c2.6,5,5.3,9.6,7.9,14.6c1.4,2.4,2.9,4.8,4.1,7.2c5.3,9.4,4.1,9.8,12.7,9.8
	c4.8,0,11.5,1,11.5-5.5c0-1.9,0-3.6,0-5.5v-79c0-3.6,0.7-7.4-1.4-9.8c-2.2-2.2-5.8-2.4-8.4-0.5c-2.6,1.9-1.9,5.3-1.9,9.1V67
	C267.1,74.2,267.3,82.3,266.9,89.5z"/>
<path class="st0" d="M723.3,11.3c10.6-1.4,18.5,2.2,25.4,8.6c8.6,7.9,7.4,16.6,7.4,26.9c0,5.8,0,11.5,0,17.3
	c0,25.9-33.6,35.3-50.4,18.2c-8.4-8.6-7.2-16.1-7.2-27.1c0-5.8,0-11.5,0-17.3c0-5.3,1.2-9.8,3.6-13.4
	C705.8,18.2,713.5,12.5,723.3,11.3L723.3,11.3z M686.6,68.9c2.9,23.3,29.5,39.6,55.9,30.2c10.8-3.8,19.4-12,23.5-22.3
	c2.4-7,1.9-13.2,1.9-20.9c0-4.6,0.2-19.2,0-22.6C764.8,6.7,734.3-5.8,712,2.9c-7,2.6-13.2,6.7-17,11.8c-2.6,3.4-4.8,6.5-6.5,10.6
	c-2.6,7.2-1.9,13-1.9,20.9C686.6,50.9,686.3,65.3,686.6,68.9z"/>
<path class="st0" d="M657.1,66.5c-1.4,19.7-25.2,29.8-42,21.8c-7-3.6-13.7-9.6-15.4-19c-0.7-4.6-0.5-12-0.5-16.8
	c0-5.5-0.2-11.8,0.2-17.3c1.2-18.2,22.6-30,41.8-21.6c3.4,1.7,7.9,5.3,9.6,7.4c7.7,9.6,6.2,15.6,6.2,28.3
	C657.1,54.7,657.3,61.2,657.1,66.5L657.1,66.5z M587.2,67.2c0.5,6.7,3.1,12.7,6,17c10.3,15.1,31.2,21.4,49,15.4
	c11.3-3.8,19.9-11.8,24-21.8c2.9-7,2.6-12.2,2.6-20.2c0-21.4,3.1-37.9-17.8-50.9c-20.2-13-51.6-6-61.2,17.5
	c-2.9,7-2.6,12.2-2.6,20.2C587.2,51.6,587,60,587.2,67.2z"/>
<path class="st0" d="M424.3,11c15.6,0,31,0,46.6,0c4.1,0,7.4,0,8.9-2.9c1.9-3.1-0.2-6.5-2.6-7.4c-2.4-1-19-0.5-22.8-0.5h-35
	c-3.8,0-6.5,1.2-7,4.6c-0.2,2.4,0,73.2,0,81.4c0,11-1.9,15.6,7.7,15.6h34.8c4.1,0,20.2,0.5,22.6-0.7c1.4-0.5,2.4-1.4,2.9-3.1
	c0.5-1.7,0.2-3.4-0.7-4.6c-2.4-2.9-4.8-2.4-9.1-2.4c-15.4,0-31,0-46.3,0V51.8h41.5c2.4,0,4.1,0.2,5.8-1.2c1.4-0.7,2.4-2.2,2.4-4.3
	c0-5.3-5.8-5.3-8.6-5.3h-41L424.3,11z"/>
<path class="st0" d="M517.6,39.1l8.9,11.8l-31.7,41.5c-1.7,1.9-3.4,4.6-0.7,7.2c1.7,1.9,4.6,3.1,7.7,1.4c1.9-1,3.8-3.8,5-5.3
	C508,93.8,533,61,534,60.2l18,23.8c3.1,4.1,6,7.9,8.9,12c1.7,1.9,2.9,4.1,5.3,5.3c4.6,1.7,12-2.2,6.5-9.1l-31.7-41.3
	c0.5-1,1.4-1.9,2.2-2.9c0.7-1,1.7-2.2,2.4-2.9c8.9-11.5,18-24,26.9-35c5.3-6.7-1.7-11.5-6.7-9.1c-1.4,0.7-1.7,1.4-2.6,2.6
	c-3.1,3.8-27.8,37-29.3,37.7c-0.7-1.2-3.4-4.6-4.6-6l-8.9-11.8c-1.7-1.7-3.1-3.8-4.6-5.8c-3.1-4.1-6-7.7-8.9-11.8
	c-1.4-1.7-2.9-4.3-5-5.3c-4.1-1.7-12.5,1-6.5,9.1l13.4,17.5C511.6,31.2,514.8,35.3,517.6,39.1z"/>
<path class="st1" d="M122.4,0h-25c-2.2,1-7.9,1-11,7.9c-1.7,4.1-1.2,12.5-1.2,17.5v56.4c0,6.7-0.2,10.8,3.8,14.9
	c0.5,0.5,0.5,0.7,1.2,1.2c4.8,3.4,7.7,2.9,13.4,2.9c6.2,0,12.5,0,18.7,0V84.2h-20.6V16.6h20.6V0L122.4,0z M158.6,0.2V0h-25.2v16.6
	c1.7,0.2,17.8,0,20.6,0v67.7c-2.9,0-19.2-0.2-20.6,0v16.6c2.4,0.2,25.2,0.2,25.7-0.2c4.1,0,8.2-3.8,9.6-6.2
	c2.4-4.1,1.9-8.2,1.9-13.4V19c0-5.5,0.5-9.1-2.2-13.2C166.8,3.8,162.9,0,158.6,0.2z"/>
<path class="st0" d="M0,33.6v34.6c1,2.2,0.5,9.4,7.7,18c3.4,4.3,7.9,8.6,14.2,11.5c11.8,5,21.1,4.1,34.3,4.1c4.3,0,8.2,0.5,9.6-3.1
	c1.7-3.8-1.2-7.2-4.3-7.7c-10.1-1.2-23.5,2.4-35-3.1c-4.6-2.4-10.6-8.2-12.5-13.2C11,67.9,12,59,12,51.1c0-7.9-1-17,1.9-23.8
	c2.6-5.8,7.2-10.1,12.7-13c11.8-6,26.4-2.2,34.8-3.6c3.4-0.5,6-3.6,4.3-7.4C65,2.2,63.6,1,62.2,0.5c-1.9-0.5-16.3-0.2-19-0.2
	c-14.6,0-27.1,4.3-35.8,15.6C0,25.2,1.2,31.2,0,33.6z"/>
</svg>
