<svg id="Слой_1" data-name="Слой 1" xmlns="http://www.w3.org/2000/svg" viewBox="0 0 310.79 109.47"><defs><style>.cls-1,.cls-3{fill:#4d4d4d;}.cls-2,.cls-4{fill:#ff5000;}.cls-2,.cls-3{fill-rule:evenodd;}</style></defs><title>Decolife_logo_g</title><path class="cls-1" d="M195.54,1.18h4.69V76.87h-4.69Z" transform="translate(0.11 -0.01)"/><path class="cls-1" d="M214.42,10a4.47,4.47,0,0,1,1.15-3.1,3.67,3.67,0,0,1,2.85-1.28,3.82,3.82,0,0,1,2.9,1.28,4.37,4.37,0,0,1,1.2,3.1,4.18,4.18,0,0,1-1.2,3,3.9,3.9,0,0,1-2.9,1.23,3.73,3.73,0,0,1-2.85-1.23A4.28,4.28,0,0,1,214.42,10Zm1.7,66.83V25.63h4.69V76.87Z" transform="translate(0.11 -0.01)"/><path class="cls-1" d="M237.09,76.87V29.69H230.2V25.63h6.89V22.75a47.54,47.54,0,0,1,.8-9,21.59,21.59,0,0,1,2.65-7.21,13.76,13.76,0,0,1,4.84-4.8A16.25,16.25,0,0,1,256.86.54a10.56,10.56,0,0,1,2.9,1.28l-1.5,4a13.52,13.52,0,0,0-2.4-1,12.17,12.17,0,0,0-3.5-.43,9,9,0,0,0-5.44,1.49,10.06,10.06,0,0,0-3.2,4,18.93,18.93,0,0,0-1.55,5.82,59,59,0,0,0-.4,7v3h12.58v4.06H241.78V76.87Z" transform="translate(0.11 -0.01)"/><path class="cls-1" d="M263.15,50.61a33.74,33.74,0,0,0,1.45,10.62,20.36,20.36,0,0,0,3.89,7.1,14.21,14.21,0,0,0,5.69,4A19.14,19.14,0,0,0,281,73.56a26.62,26.62,0,0,0,7.84-1,38.84,38.84,0,0,0,5-1.92l1.2,3.95a27.74,27.74,0,0,1-5,2.08,31,31,0,0,1-9.64,1.23A21,21,0,0,1,271.29,76a20.06,20.06,0,0,1-6.89-5.34,23.76,23.76,0,0,1-4.34-8.17,34.45,34.45,0,0,1-1.5-10.41,38.13,38.13,0,0,1,1.6-11.48,27.79,27.79,0,0,1,4.39-8.7,19.14,19.14,0,0,1,6.64-5.55,18.38,18.38,0,0,1,8.34-1.92A15.6,15.6,0,0,1,288.87,27a19,19,0,0,1,5.54,6.14,23.92,23.92,0,0,1,2.7,7.53,40.13,40.13,0,0,1,.7,6.83v1.71a13.32,13.32,0,0,1-.1,1.49Zm29.76-4.06a31.78,31.78,0,0,0-.6-5.92,17.69,17.69,0,0,0-2.2-5.82,13.6,13.6,0,0,0-4.29-4.43,14,14,0,0,0-13.48-.05,16.09,16.09,0,0,0-4.69,4.32,20.08,20.08,0,0,0-2.9,5.76,30.28,30.28,0,0,0-1.3,6.14Z" transform="translate(0.11 -0.01)"/><path class="cls-2" d="M22.16,9.93A39,39,0,0,1,31.56,12a26.84,26.84,0,0,1,11.38,8H53.59a32.59,32.59,0,0,0-5.78-7.39A36.41,36.41,0,0,0,32.47,4.11,71.32,71.32,0,0,0,11,1.82H.59V51.29h9.7V9.55l.82,0A86.42,86.42,0,0,1,22.16,9.93Z" transform="translate(0.11 -0.01)"/><path class="cls-3" d="M56.31,25.86h-9.6A30.78,30.78,0,0,1,49.6,37.59a33,33,0,0,1-2,13A29.47,29.47,0,0,1,33.49,66.79,29.3,29.3,0,0,1,22.79,69.5a107.42,107.42,0,0,1-12.47.24v7.9c8.65.4,16.26-.35,22.72-2.33A34.75,34.75,0,0,0,49.27,65.26C55.69,58,58.84,48,58.58,38.17A40.39,40.39,0,0,0,56.31,25.86Z" transform="translate(0.11 -0.01)"/><path class="cls-1" d="M.31,107.38a5.3,5.3,0,0,0,1.5.79,5.53,5.53,0,0,0,1.83.3,3.74,3.74,0,0,0,2.72-1,3.33,3.33,0,0,0,1-2.51,3.56,3.56,0,0,0-.72-2.3,6.13,6.13,0,0,0-2.38-1.61,7.89,7.89,0,0,1-2.87-1.78A3.86,3.86,0,0,1,.31,96.5,4.23,4.23,0,0,1,.65,94.8a4,4,0,0,1,.93-1.34A4.19,4.19,0,0,1,3,92.6a5.08,5.08,0,0,1,1.79-.31,6.17,6.17,0,0,1,1.87.25,4.56,4.56,0,0,1,1.16.52l-.42,1a4.13,4.13,0,0,0-1-.51,4.77,4.77,0,0,0-1.67-.26,3.82,3.82,0,0,0-1.56.28,2.77,2.77,0,0,0-1.57,1.71,3.31,3.31,0,0,0-.17,1,3.14,3.14,0,0,0,.76,2.21A6.9,6.9,0,0,0,4.57,100a11.65,11.65,0,0,1,1.67.89,5.62,5.62,0,0,1,1.2,1,3.87,3.87,0,0,1,.73,1.29,5.39,5.39,0,0,1-.06,3.38,4,4,0,0,1-.91,1.46,4.41,4.41,0,0,1-1.53,1,5.59,5.59,0,0,1-2.12.37,6.15,6.15,0,0,1-1-.09,8,8,0,0,1-1-.24,7,7,0,0,1-.91-.35,4.06,4.06,0,0,1-.73-.42Z" transform="translate(0.11 -0.01)"/><path class="cls-1" d="M11.3,100.18q0-.84,0-1.48t-.07-1.36h1.06v2.05h.09a4.68,4.68,0,0,1,1.34-1.68,3.46,3.46,0,0,1,2.17-.64,2.88,2.88,0,0,1,2,.72A3.93,3.93,0,0,1,19,99.61h0a5.25,5.25,0,0,1,.52-.89,4.59,4.59,0,0,1,.61-.69,4.07,4.07,0,0,1,1.12-.72,3.76,3.76,0,0,1,1.45-.25,3.8,3.8,0,0,1,1,.17,2.83,2.83,0,0,1,1.17.72,4.42,4.42,0,0,1,1,1.53,7.13,7.13,0,0,1,.4,2.65v7.07H25.21v-6.92a5.9,5.9,0,0,0-.68-3.1,2.34,2.34,0,0,0-2.14-1.1,2.51,2.51,0,0,0-1,.19,2.82,2.82,0,0,0-.81.51,3.7,3.7,0,0,0-.64.75,4.26,4.26,0,0,0-.44.9c0,.18-.09.37-.13.56a3,3,0,0,0-.06.61v7.62H18.27v-7.47a4.68,4.68,0,0,0-.68-2.62,2.27,2.27,0,0,0-2-1,2.34,2.34,0,0,0-1,.22,3.48,3.48,0,0,0-.87.58,3.7,3.7,0,0,0-.68.84,4.59,4.59,0,0,0-.45,1c0,.18-.08.37-.12.56a3.72,3.72,0,0,0,0,.61v7.32H11.3Z" transform="translate(0.11 -0.01)"/><path class="cls-1" d="M36.66,106.39q0,.72,0,1.43a10,10,0,0,0,.14,1.38h-1l-.16-1.68h0a4.16,4.16,0,0,1-.53.69,4.23,4.23,0,0,1-.75.63,3.88,3.88,0,0,1-1,.46,3.92,3.92,0,0,1-1.19.17,3.36,3.36,0,0,1-1.42-.29,2.93,2.93,0,0,1-1-.74,3.08,3.08,0,0,1-.59-1.05A3.92,3.92,0,0,1,30.59,103a8.62,8.62,0,0,1,5-1.09v-.32a8.27,8.27,0,0,0-.08-1.08,3.55,3.55,0,0,0-.36-1.15,2.42,2.42,0,0,0-.83-.92,2.68,2.68,0,0,0-1.5-.37,4.49,4.49,0,0,0-1.42.23,4.7,4.7,0,0,0-1.28.66l-.35-.87a5,5,0,0,1,1.53-.78,5.72,5.72,0,0,1,1.64-.23,3.74,3.74,0,0,1,1.89.42,3.22,3.22,0,0,1,1.15,1.09,4.23,4.23,0,0,1,.57,1.5,9.26,9.26,0,0,1,.15,1.64Zm-1.09-3.54a14.33,14.33,0,0,0-1.84.07,6.33,6.33,0,0,0-1.77.43,3.38,3.38,0,0,0-1.34,1,2.59,2.59,0,0,0-.53,1.71,2.36,2.36,0,0,0,.67,1.86,2.21,2.21,0,0,0,1.5.59,3.44,3.44,0,0,0,1.2-.2,3.07,3.07,0,0,0,.93-.53,3.32,3.32,0,0,0,.66-.75,3.69,3.69,0,0,0,.41-.87,3.66,3.66,0,0,0,.12-.72Z" transform="translate(0.11 -0.01)"/><path class="cls-1" d="M40.22,100.85q0-.87,0-1.77t-.07-1.74h1v2.38h.07a4.49,4.49,0,0,1,1.18-1.88,2.73,2.73,0,0,1,1.94-.77h.2l.22,0v1.14l-.25,0h-.28a2.35,2.35,0,0,0-1.9.94,4.74,4.74,0,0,0-1,2.35,6.09,6.09,0,0,0-.09,1.11v6.58H40.2Z" transform="translate(0.11 -0.01)"/><path class="cls-1" d="M48.44,94.72v2.62h3.08v.94H48.44V106a3.73,3.73,0,0,0,.36,1.82,1.3,1.3,0,0,0,1.24.63,4.48,4.48,0,0,0,.72,0,3,3,0,0,0,.51-.12l.12.89a3.4,3.4,0,0,1-1.48.27,2.61,2.61,0,0,1-1.26-.27,2.05,2.05,0,0,1-.79-.75,3.32,3.32,0,0,1-.4-1.16,8.67,8.67,0,0,1-.12-1.47V98.28H45.5v-.94h1.83V95.16Z" transform="translate(0.11 -0.01)"/><path class="cls-1" d="M58.41,107.38a5.3,5.3,0,0,0,1.5.79,5.53,5.53,0,0,0,1.83.3,3.74,3.74,0,0,0,2.72-1,3.33,3.33,0,0,0,1-2.51,3.56,3.56,0,0,0-.72-2.3,6.13,6.13,0,0,0-2.38-1.61,7.89,7.89,0,0,1-2.87-1.78,3.86,3.86,0,0,1-1.06-2.82,4.23,4.23,0,0,1,.33-1.69,4,4,0,0,1,.93-1.34,4.19,4.19,0,0,1,1.41-.87,5.08,5.08,0,0,1,1.79-.31,6.17,6.17,0,0,1,1.87.25,4.56,4.56,0,0,1,1.16.52l-.42,1a4.13,4.13,0,0,0-1-.51,4.77,4.77,0,0,0-1.67-.26,3.82,3.82,0,0,0-1.56.28,2.77,2.77,0,0,0-1.57,1.71,3.31,3.31,0,0,0-.17,1,3.14,3.14,0,0,0,.76,2.21A6.9,6.9,0,0,0,62.67,100a11.65,11.65,0,0,1,1.67.89,5.62,5.62,0,0,1,1.2,1,3.87,3.87,0,0,1,.73,1.29,5.39,5.39,0,0,1-.06,3.38,4,4,0,0,1-.91,1.46,4.41,4.41,0,0,1-1.53,1,5.59,5.59,0,0,1-2.12.37,6.15,6.15,0,0,1-1-.09,8,8,0,0,1-1-.24,7,7,0,0,1-.91-.35,4.06,4.06,0,0,1-.73-.42Z" transform="translate(0.11 -0.01)"/><path class="cls-1" d="M77.77,106.32q0,.79,0,1.51t.07,1.38H76.8v-2.05h-.09a5.78,5.78,0,0,1-.53.82,3.79,3.79,0,0,1-.79.75,4.17,4.17,0,0,1-1.05.54,3.94,3.94,0,0,1-1.33.21,4.08,4.08,0,0,1-1.18-.2,2.9,2.9,0,0,1-1.2-.75,4.37,4.37,0,0,1-.94-1.57,7.63,7.63,0,0,1-.38-2.65v-7h1.11v6.73a9.6,9.6,0,0,0,.15,1.77,4.36,4.36,0,0,0,.49,1.38,2.39,2.39,0,0,0,2.23,1.25,2.87,2.87,0,0,0,1.11-.21,3.34,3.34,0,0,0,.91-.56,4,4,0,0,0,.69-.77,3.9,3.9,0,0,0,.45-.87,4.11,4.11,0,0,0,.15-.61,4,4,0,0,0,.06-.68V97.34h1.11Z" transform="translate(0.11 -0.01)"/><path class="cls-1" d="M81.41,100.18q0-.84,0-1.48t-.07-1.36h1.06v2.1h.09a4.09,4.09,0,0,1,1.41-1.68,3.88,3.88,0,0,1,2.31-.69,4.45,4.45,0,0,1,1,.16,3.14,3.14,0,0,1,1.25.68,4.17,4.17,0,0,1,1.05,1.5A6.45,6.45,0,0,1,90,102v7.2H88.88v-7.07a7.69,7.69,0,0,0-.15-1.53,3.9,3.9,0,0,0-.5-1.3,2.61,2.61,0,0,0-.93-.89,2.78,2.78,0,0,0-1.41-.33,3,3,0,0,0-2,.77,3.92,3.92,0,0,0-1.19,2,3,3,0,0,0-.16,1v7.37H81.41Z" transform="translate(0.11 -0.01)"/><path class="cls-1" d="M98.53,92.74c.45-.08.94-.16,1.48-.22a14.86,14.86,0,0,1,1.78-.1,7.14,7.14,0,0,1,2.39.36,3.92,3.92,0,0,1,2.52,2.44,5.25,5.25,0,0,1,.31,1.88,5.51,5.51,0,0,1-.43,2.25,4.65,4.65,0,0,1-1.17,1.62,4.8,4.8,0,0,1-1.76,1,7.33,7.33,0,0,1-2.22.32,8.19,8.19,0,0,1-1.83-.17v7.12H98.53ZM99.61,101a4.4,4.4,0,0,0,.88.17,10.25,10.25,0,0,0,1,0,4.64,4.64,0,0,0,3.23-1,3.9,3.9,0,0,0,1.14-3,4.33,4.33,0,0,0-.3-1.68,3,3,0,0,0-.86-1.17,3.83,3.83,0,0,0-1.32-.69,5.74,5.74,0,0,0-1.69-.23,11.27,11.27,0,0,0-1.27.06,8.36,8.36,0,0,0-.86.14Z" transform="translate(0.11 -0.01)"/><path class="cls-1" d="M109.91,100.85q0-.87,0-1.77t-.07-1.74h1v2.38h.07a4.49,4.49,0,0,1,1.18-1.88,2.73,2.73,0,0,1,1.94-.77h.2l.22,0v1.14l-.25,0h-.28a2.35,2.35,0,0,0-1.9.94,4.74,4.74,0,0,0-1,2.35,6.09,6.09,0,0,0-.09,1.11v6.58h-1.09Z" transform="translate(0.11 -0.01)"/><path class="cls-1" d="M120.83,97.07a4.75,4.75,0,0,1,2,.43,4.5,4.5,0,0,1,1.58,1.24,5.94,5.94,0,0,1,1,1.93,8,8,0,0,1,.37,2.51,7.91,7.91,0,0,1-.46,2.87,5.71,5.71,0,0,1-1.21,2,4.74,4.74,0,0,1-1.67,1.13,4.94,4.94,0,0,1-1.82.36,4.63,4.63,0,0,1-2-.42,4.49,4.49,0,0,1-1.58-1.22,6,6,0,0,1-1.05-1.93,7.88,7.88,0,0,1-.38-2.54,8.09,8.09,0,0,1,.42-2.71,5.88,5.88,0,0,1,1.13-2,4.78,4.78,0,0,1,1.63-1.21A4.68,4.68,0,0,1,120.83,97.07Zm0,1a3.32,3.32,0,0,0-1.79.47,4.12,4.12,0,0,0-1.25,1.21,5.24,5.24,0,0,0-.73,1.68,7.84,7.84,0,0,0-.23,1.88,7.06,7.06,0,0,0,.29,2.07,5.25,5.25,0,0,0,.81,1.64,3.89,3.89,0,0,0,1.24,1.09,3.24,3.24,0,0,0,1.6.4,3.32,3.32,0,0,0,1.6-.4,3.93,3.93,0,0,0,1.27-1.09,5.26,5.26,0,0,0,.83-1.66,7.09,7.09,0,0,0,.3-2.13,7.27,7.27,0,0,0-.22-1.72,5.93,5.93,0,0,0-.68-1.67,4,4,0,0,0-1.21-1.27A3.18,3.18,0,0,0,120.81,98.06Z" transform="translate(0.11 -0.01)"/><path class="cls-1" d="M130.15,94.72v2.62h3.08v.94h-3.08V106a3.73,3.73,0,0,0,.36,1.82,1.3,1.3,0,0,0,1.24.63,4.48,4.48,0,0,0,.72,0,3,3,0,0,0,.51-.12l.12.89a3.4,3.4,0,0,1-1.48.27,2.61,2.61,0,0,1-1.26-.27,2.05,2.05,0,0,1-.79-.75,3.32,3.32,0,0,1-.4-1.16,8.67,8.67,0,0,1-.12-1.47V98.28h-1.83v-.94H129V95.16Z" transform="translate(0.11 -0.01)"/><path class="cls-1" d="M135.82,103.13a7.82,7.82,0,0,0,.34,2.46,4.72,4.72,0,0,0,.9,1.64,3.3,3.3,0,0,0,1.32.93,4.45,4.45,0,0,0,1.58.28,6.17,6.17,0,0,0,1.82-.22,9,9,0,0,0,1.17-.45l.28.92a6.49,6.49,0,0,1-1.17.48,7.17,7.17,0,0,1-2.23.28,4.88,4.88,0,0,1-2.12-.45,4.65,4.65,0,0,1-1.6-1.24,5.5,5.5,0,0,1-1-1.89,8,8,0,0,1-.35-2.41,8.85,8.85,0,0,1,.37-2.66,6.45,6.45,0,0,1,1-2,4.43,4.43,0,0,1,1.54-1.29,4.25,4.25,0,0,1,1.93-.45,3.61,3.61,0,0,1,2.16.59,4.38,4.38,0,0,1,1.28,1.42,5.55,5.55,0,0,1,.63,1.74,9.33,9.33,0,0,1,.16,1.58v.4a3.22,3.22,0,0,1,0,.35Zm6.9-.94a7.35,7.35,0,0,0-.14-1.37,4.08,4.08,0,0,0-.51-1.35,3.16,3.16,0,0,0-1-1,3.24,3.24,0,0,0-3.12,0,3.73,3.73,0,0,0-1.09,1,4.65,4.65,0,0,0-.67,1.33,7.07,7.07,0,0,0-.3,1.42Z" transform="translate(0.11 -0.01)"/><path class="cls-1" d="M154.08,108.74a6.66,6.66,0,0,1-1.16.46,6.56,6.56,0,0,1-2,.26,5.15,5.15,0,0,1-2.14-.43,4.61,4.61,0,0,1-1.64-1.24,5.71,5.71,0,0,1-1.05-1.92,7.83,7.83,0,0,1-.37-2.47,7.59,7.59,0,0,1,.42-2.57,6,6,0,0,1,1.16-2,5.3,5.3,0,0,1,1.77-1.3,5.38,5.38,0,0,1,2.26-.47,5.89,5.89,0,0,1,1.75.23,3.69,3.69,0,0,1,1.08.48l-.39,1a5.29,5.29,0,0,0-1-.47,4.57,4.57,0,0,0-1.53-.22,4,4,0,0,0-1.91.43,4.2,4.2,0,0,0-1.38,1.15,5,5,0,0,0-.83,1.67,7.09,7.09,0,0,0-.28,2,6.77,6.77,0,0,0,.31,2.12,4.65,4.65,0,0,0,.89,1.62,4,4,0,0,0,1.37,1,4.13,4.13,0,0,0,1.74.36,4.83,4.83,0,0,0,1.6-.22q.62-.22,1.09-.42Z" transform="translate(0.11 -0.01)"/><path class="cls-1" d="M158.2,94.72v2.62h3.08v.94H158.2V106a3.73,3.73,0,0,0,.36,1.82,1.3,1.3,0,0,0,1.24.63,4.48,4.48,0,0,0,.72,0,3,3,0,0,0,.51-.12l.12.89a3.4,3.4,0,0,1-1.48.27,2.61,2.61,0,0,1-1.26-.27,2.05,2.05,0,0,1-.79-.75,3.32,3.32,0,0,1-.4-1.16,8.67,8.67,0,0,1-.12-1.47V98.28h-1.83v-.94h1.83V95.16Z" transform="translate(0.11 -0.01)"/><path class="cls-1" d="M163.29,93.73a1,1,0,0,1,.27-.72.85.85,0,0,1,.66-.3.89.89,0,0,1,.67.3,1,1,0,0,1,.28.72,1,1,0,0,1-.28.71.91.91,0,0,1-.67.28.87.87,0,0,1-.66-.28A1,1,0,0,1,163.29,93.73Zm.39,15.48V97.34h1.09v11.87Z" transform="translate(0.11 -0.01)"/><path class="cls-1" d="M172.68,97.07a4.75,4.75,0,0,1,2,.43,4.5,4.5,0,0,1,1.58,1.24,5.94,5.94,0,0,1,1,1.93,8,8,0,0,1,.37,2.51,7.91,7.91,0,0,1-.46,2.87,5.71,5.71,0,0,1-1.21,2,4.74,4.74,0,0,1-1.67,1.13,4.94,4.94,0,0,1-1.82.36,4.63,4.63,0,0,1-2-.42,4.49,4.49,0,0,1-1.58-1.22,6,6,0,0,1-1.05-1.93,7.88,7.88,0,0,1-.38-2.54,8.09,8.09,0,0,1,.42-2.71,5.88,5.88,0,0,1,1.13-2,4.78,4.78,0,0,1,1.63-1.21A4.68,4.68,0,0,1,172.68,97.07Zm0,1a3.32,3.32,0,0,0-1.79.47,4.12,4.12,0,0,0-1.25,1.21,5.24,5.24,0,0,0-.73,1.68,7.84,7.84,0,0,0-.23,1.88,7.06,7.06,0,0,0,.29,2.07,5.25,5.25,0,0,0,.81,1.64A3.89,3.89,0,0,0,171,108.1a3.24,3.24,0,0,0,1.6.4,3.32,3.32,0,0,0,1.6-.4,3.93,3.93,0,0,0,1.27-1.09,5.26,5.26,0,0,0,.83-1.66,7.09,7.09,0,0,0,.3-2.13,7.27,7.27,0,0,0-.22-1.72,5.93,5.93,0,0,0-.68-1.67,4,4,0,0,0-1.21-1.27A3.18,3.18,0,0,0,172.66,98.06Z" transform="translate(0.11 -0.01)"/><path class="cls-1" d="M180.48,100.18q0-.84,0-1.48t-.07-1.36h1.06v2.1h.09A4.09,4.09,0,0,1,183,97.76a3.88,3.88,0,0,1,2.31-.69,4.45,4.45,0,0,1,1,.16,3.14,3.14,0,0,1,1.25.68,4.17,4.17,0,0,1,1.05,1.5A6.45,6.45,0,0,1,189,102v7.2H188v-7.07a7.69,7.69,0,0,0-.15-1.53,3.9,3.9,0,0,0-.5-1.3,2.61,2.61,0,0,0-.93-.89,2.78,2.78,0,0,0-1.41-.33,3,3,0,0,0-2,.77,3.92,3.92,0,0,0-1.19,2,3,3,0,0,0-.16,1v7.37h-1.09Z" transform="translate(0.11 -0.01)"/><line class="cls-1" x1="126.56" y1="69.76" x2="126.56" y2="69.76"/><line class="cls-1" x1="117.55" y1="28.49" x2="117.57" y2="28.49"/><path class="cls-3" d="M95.08,77.54h1.42v-8c-5.1.06-10.28,0-14.69-1.46-4.76-1.62-8.59-4.92-10.4-11.57l-.29-1H96.51V47.25H71.2l.31-1.06a18.31,18.31,0,0,1,3.58-6.76A15.78,15.78,0,0,1,81,35.12l.7-.29,0,0c4.38-1.61,9.67-1.52,14.23-1.44l.57,0V25.58H94.87c-4.63,0-9.28,0-13.77,1.06h0a24.24,24.24,0,0,0-13.37,8.81A25.22,25.22,0,0,0,62.47,50h0l0,.8v0h0v0a26.46,26.46,0,0,0,2.33,11.84A25.44,25.44,0,0,0,72.18,72c7,5.61,14.35,5.58,22.9,5.53Z" transform="translate(0.11 -0.01)"/><path class="cls-3" d="M136.26,77.54v-8c-5.13.06-10.34,0-14.77-1.49-4.79-1.64-8.62-5-10.39-11.76a19.21,19.21,0,0,1,1.1-12.68,16.38,16.38,0,0,1,8.53-8.52l1.15-.49v.06c4.3-1.46,9.39-1.36,13.8-1.29l.57,0V25.58h-1.64c-4.63,0-9.28,0-13.76,1.06h0a24.23,24.23,0,0,0-13.39,8.81A25.22,25.22,0,0,0,102.22,50h0l0,.8v0h0v0a26.67,26.67,0,0,0,2.33,11.84,25.44,25.44,0,0,0,7.4,9.28c7.06,5.61,14.35,5.58,22.9,5.53Z" transform="translate(0.11 -0.01)"/><path class="cls-3" d="M162.36,32.06a19.34,19.34,0,1,0,19.78,19.33,19.56,19.56,0,0,0-19.78-19.33Zm0-6.83c-14.78,0-26.76,11.72-26.76,26.16s12,26.15,26.76,26.15,26.75-11.7,26.75-26.15-12-26.16-26.75-26.16Z" transform="translate(0.11 -0.01)"/><circle class="cls-4" cx="218.8" cy="11.46" r="6.67"/><path class="cls-1" d="M310.12,27.72a4,4,0,0,0-1.57-1.6,4.1,4.1,0,0,0-4.11,0,4,4,0,0,0-1.57,1.6,4.45,4.45,0,0,0,0,4.33,4.11,4.11,0,0,0,1.54,1.6,4,4,0,0,0,4.17,0,3.93,3.93,0,0,0,1.54-1.6,4.45,4.45,0,0,0,0-4.33Zm-.77,3.86a3.48,3.48,0,0,1-1.21,1.26,3.15,3.15,0,0,1-3.28,0,3.43,3.43,0,0,1-1.21-1.26,3.81,3.81,0,0,1-.41-1.69,3.6,3.6,0,0,1,.44-1.72,3,3,0,0,1,1.21-1.26,3.22,3.22,0,0,1,3.22,0,3.06,3.06,0,0,1,1.21,1.26,3.64,3.64,0,0,1,.44,1.72A3.85,3.85,0,0,1,309.35,31.59Z" transform="translate(0.11 -0.01)"/><path class="cls-1" d="M307.25,30.24a1,1,0,0,0-.35-.24,1.23,1.23,0,0,0,.89-.4,1.18,1.18,0,0,0,.35-.86,1.13,1.13,0,0,0-.21-.67,1.47,1.47,0,0,0-.53-.43,3.52,3.52,0,0,0-1.13-.12H304.8V32h.68v-1.9h.41a.76.76,0,0,1,.56.12,3.72,3.72,0,0,1,.74,1.08l.38.7h.86l-.53-.89A5.06,5.06,0,0,0,307.25,30.24Zm-.92-.77h-.86V28.12h.8a1.75,1.75,0,0,1,.71.09.54.54,0,0,1,.29.21.9.9,0,0,1,.12.37.6.6,0,0,1-.24.49A1.32,1.32,0,0,1,306.34,29.47Z" transform="translate(0.11 -0.01)"/></svg>