<?xml version="1.0" encoding="utf-8"?>
<!-- Generator: Adobe Illustrator 21.0.0, SVG Export Plug-In . SVG Version: 6.00 Build 0)  -->
<svg version="1.1" id="Layer_1" xmlns="http://www.w3.org/2000/svg" xmlns:xlink="http://www.w3.org/1999/xlink" x="0px" y="0px"
	 viewBox="0 0 422.8 186.3" style="enable-background:new 0 0 422.8 186.3;" xml:space="preserve">
<style type="text/css">
	.st0{fill-rule:evenodd;clip-rule:evenodd;fill:#555657;}
	.st1{fill-rule:evenodd;clip-rule:evenodd;fill:#DF6320;}
	.st2{fill-rule:evenodd;clip-rule:evenodd;fill:#0B4827;}
	.st3{fill-rule:evenodd;clip-rule:evenodd;fill:none;stroke:#E2781C;stroke-width:0.216;stroke-miterlimit:22.9256;}
	.st4{fill-rule:evenodd;clip-rule:evenodd;fill:#1B472B;}
</style>
<g>
	<g>
		<path class="st0" d="M32.3,174.7L34,180h3.7l-6.1-18.7h-4.4l-6,18.7h3.5l1.6-5.3H32.3L32.3,174.7z M26.9,172.1l1.4-4.6
			c0.3-1.1,0.6-2.4,0.9-3.5h0.1c0.3,1.1,0.6,2.4,0.9,3.5l1.5,4.6H26.9z"/>
		<path class="st0" d="M39.9,161.3V172c0,5.9,2.8,8.3,7.1,8.3c4.5,0,7.5-2.6,7.5-8.3v-10.7h-3.4v10.9c0,3.7-1.5,5.4-4,5.4
			c-2.3,0-3.8-1.7-3.8-5.4v-10.9H39.9z"/>
		<polygon class="st0" points="62.6,180 66.1,180 66.1,164.2 71.5,164.2 71.5,161.3 57.3,161.3 57.3,164.2 62.6,164.2 		"/>
		<path class="st0" d="M81.4,161c-5.3,0-8.9,4.1-8.9,9.8c0,5.5,3.3,9.5,8.6,9.5c5.2,0,9-3.6,9-9.9C90.1,165.1,86.8,161,81.4,161
			L81.4,161z M81.3,163.7c3.4,0,5.2,3.3,5.2,6.9c0,3.9-1.9,7-5.2,7c-3.3,0-5.2-3-5.2-6.8C76.1,166.9,77.9,163.7,81.3,163.7z"/>
		<path class="st0" d="M109.8,180h3.3l-1.1-18.7h-4.5l-2.6,7.5c-0.7,2.2-1.4,4.5-1.9,6.5H103c-0.5-2.1-1.1-4.3-1.7-6.5l-2.4-7.5
			h-4.5L93.1,180h3.2l0.4-7.5c0.1-2.6,0.3-5.5,0.3-8h0.1c0.5,2.3,1.2,4.9,1.9,7.3l2.5,8h2.6l2.7-8.1c0.8-2.4,1.6-4.9,2.2-7.2h0.1
			c0,2.5,0.1,5.5,0.2,7.9L109.8,180z"/>
		<path class="st0" d="M126.7,174.7l1.7,5.3h3.7l-6.1-18.7h-4.4l-6,18.7h3.5l1.6-5.3H126.7L126.7,174.7z M121.3,172.1l1.4-4.6
			c0.3-1.1,0.6-2.4,0.9-3.5h0.1c0.3,1.1,0.6,2.4,0.9,3.5l1.5,4.6H121.3z"/>
		<polygon class="st0" points="136.5,180 140,180 140,164.2 145.4,164.2 145.4,161.3 131.2,161.3 131.2,164.2 136.5,164.2 		"/>
		<rect x="148.1" y="161.3" class="st0" width="3.4" height="18.7"/>
		<path class="st0" d="M168.9,176.8c-0.9,0.4-2.3,0.7-3.7,0.7c-4.1,0-6.5-2.6-6.5-6.8c0-4.5,2.8-6.9,6.6-6.9c1.6,0,2.8,0.3,3.7,0.7
			l0.8-2.7c-0.7-0.4-2.3-0.8-4.6-0.8c-5.7,0-10,3.7-10,9.9c0,5.7,3.6,9.4,9.6,9.4c2.3,0,4-0.4,4.8-0.8L168.9,176.8z"/>
		<path class="st0" d="M191.6,176.8c-0.9,0.4-2.3,0.7-3.7,0.7c-4.1,0-6.5-2.6-6.5-6.8c0-4.5,2.8-6.9,6.6-6.9c1.6,0,2.8,0.3,3.7,0.7
			l0.8-2.7c-0.7-0.4-2.3-0.8-4.6-0.8c-5.7,0-10,3.7-10,9.9c0,5.7,3.6,9.4,9.6,9.4c2.3,0,4-0.4,4.8-0.8L191.6,176.8z"/>
		<path class="st0" d="M202.8,161c-5.3,0-8.9,4.1-8.9,9.8c0,5.5,3.3,9.5,8.6,9.5c5.2,0,9-3.6,9-9.9C211.5,165.1,208.3,161,202.8,161
			L202.8,161z M202.7,163.7c3.4,0,5.2,3.3,5.2,6.9c0,3.9-1.9,7-5.2,7c-3.3,0-5.2-3-5.2-6.8C197.5,166.9,199.3,163.7,202.7,163.7z"/>
		<path class="st0" d="M218.2,180v-6.7c0-3.1,0-5.6-0.2-8l0.1,0c0.9,2.1,2.2,4.4,3.4,6.5l4.9,8.2h3.5v-18.7h-3.2v6.5
			c0,2.9,0.1,5.3,0.3,7.8H227c-0.9-2-1.9-4.2-3.2-6.3l-4.8-8H215V180H218.2z"/>
		<polygon class="st0" points="238,180 241.4,180 241.4,164.2 246.8,164.2 246.8,161.3 232.6,161.3 232.6,164.2 238,164.2 		"/>
		<path class="st0" d="M249.5,180h3.4v-7.7h1.7c1.9,0.1,2.8,0.8,3.4,3.3c0.5,2.3,1,3.9,1.3,4.4h3.5c-0.4-0.7-0.9-2.9-1.5-5.2
			c-0.5-1.8-1.3-3.1-2.6-3.6v-0.1c1.8-0.6,3.4-2.3,3.4-4.7c0-1.6-0.6-2.9-1.6-3.8c-1.3-1.1-3.1-1.5-5.8-1.5c-2,0-3.9,0.2-5.2,0.4
			V180L249.5,180z M252.9,163.9c0.3-0.1,1-0.2,2.1-0.2c2.2,0,3.7,0.9,3.7,3c0,1.9-1.4,3.1-3.8,3.1h-2V163.9z"/>
		<path class="st0" d="M273.9,161c-5.3,0-8.9,4.1-8.9,9.8c0,5.5,3.3,9.5,8.6,9.5c5.2,0,9-3.6,9-9.9C282.6,165.1,279.3,161,273.9,161
			L273.9,161z M273.8,163.7c3.4,0,5.2,3.3,5.2,6.9c0,3.9-1.9,7-5.2,7c-3.3,0-5.2-3-5.2-6.8C268.6,166.9,270.4,163.7,273.8,163.7z"/>
		<polygon class="st0" points="286.1,180 297.2,180 297.2,177.2 289.5,177.2 289.5,161.3 286.1,161.3 		"/>
		<path class="st0" d="M305.3,179.2c1,0.6,3.1,1.2,5.1,1.2c4.8,0,7.1-2.6,7.1-5.6c0-2.7-1.6-4.3-4.8-5.6c-2.5-1-3.6-1.6-3.6-3.1
			c0-1.1,0.9-2.3,3.1-2.3c1.8,0,3.1,0.5,3.7,0.9l0.8-2.8c-1-0.5-2.5-0.9-4.5-0.9c-4.1,0-6.6,2.3-6.6,5.4c0,2.7,2,4.3,5.1,5.5
			c2.4,0.9,3.3,1.7,3.3,3.1c0,1.5-1.2,2.6-3.4,2.6c-1.8,0-3.4-0.6-4.5-1.2L305.3,179.2z"/>
		<path class="st0" d="M328.8,180v-7.9l6.2-10.8h-3.9l-2.3,4.8c-0.6,1.4-1.2,2.5-1.6,3.7h-0.1c-0.5-1.3-1-2.3-1.6-3.7l-2.3-4.8h-3.9
			l5.9,10.9v7.8H328.8z"/>
		<path class="st0" d="M336.2,179.2c1,0.6,3.1,1.2,5.1,1.2c4.8,0,7.1-2.6,7.1-5.6c0-2.7-1.6-4.3-4.8-5.6c-2.5-1-3.6-1.6-3.6-3.1
			c0-1.1,0.9-2.3,3.1-2.3c1.8,0,3.1,0.5,3.7,0.9l0.8-2.8c-1-0.5-2.5-0.9-4.5-0.9c-4.1,0-6.6,2.3-6.6,5.4c0,2.7,2,4.3,5.1,5.5
			c2.4,0.9,3.3,1.7,3.3,3.1c0,1.5-1.2,2.6-3.4,2.6c-1.8,0-3.4-0.6-4.5-1.2L336.2,179.2z"/>
		<polygon class="st0" points="355.6,180 359,180 359,164.2 364.4,164.2 364.4,161.3 350.3,161.3 350.3,164.2 355.6,164.2 		"/>
		<polygon class="st0" points="377.7,168.9 370.6,168.9 370.6,164.1 378.1,164.1 378.1,161.3 367.2,161.3 367.2,180 378.5,180 
			378.5,177.2 370.6,177.2 370.6,171.7 377.7,171.7 		"/>
		<path class="st0" d="M398.3,180h3.3l-1.1-18.7h-4.5l-2.6,7.5c-0.7,2.2-1.4,4.5-1.9,6.5h-0.1c-0.5-2.1-1.1-4.3-1.7-6.5l-2.4-7.5
			h-4.5l-1.3,18.7h3.2l0.4-7.5c0.1-2.6,0.3-5.5,0.3-8h0.1c0.5,2.3,1.2,4.9,1.9,7.3l2.5,8h2.6l2.7-8.1c0.8-2.4,1.6-4.9,2.2-7.2h0.1
			c0,2.5,0.1,5.5,0.2,7.9L398.3,180z"/>
	</g>
	<g>
		<path class="st1" d="M56,36.3c11.7,0,18.8-8.4,18.8-18.1C74.8,8.1,67.4,0,56.4,0C45,0,37.6,8.4,37.6,18.1
			c0,9.7,7.1,18.1,18.1,18.1H56z"/>
		<path class="st2" d="M89.8,16.6c8.2-0.2,16.1-0.2,23.1,0.4c1,0.1,2,0.2,3,0.3c4.8,0.7,9.2,1.8,13.3,3.3c1.7,0.6,3.2,1.3,4.8,2
			c12.1,6.7,20.5,17.3,25,29.4c2.4,6.5,3.7,13.3,3.8,20.2c-0.1,6.9-1.4,13.7-3.8,20.2c-4.5,12-12.8,22.7-25,29.4
			c-1.5,0.7-3.1,1.4-4.8,2c-4.1,1.5-8.5,2.6-13.3,3.3c-1,0.1-2,0.2-3,0.3c-7.1,0.7-14.9,0.7-23.1,0.4v0.5l-0.1,0v-1.5V56.7h-18v86
			H91l0,0c2,0.1,3.9,0.1,5.8,0.1c13.2,0.1,24.9-1.4,35.1-4.5c4.2-1.3,8.2-2.9,11.9-4.7l0,0l0.1-0.1c5.8-2.9,10.9-6.4,15.4-10.6
			c12.9-12.3,19.5-29.8,20-47.6c0-1,0-2,0-3c0-1,0-2,0-3c-0.5-17.8-7.1-35.3-20-47.6c-4.5-4.2-9.6-7.8-15.4-10.6l-0.1-0.1l0,0
			c-3.7-1.9-7.6-3.4-11.9-4.7c-10.2-3.1-22-4.6-35.1-4.5c-1.9,0-3.8,0-5.8,0.1l0,0h-1.2V16.6z"/>
		<line class="st3" x1="306.9" y1="128.2" x2="306.9" y2="128.2"/>
		<line class="st3" x1="290.2" y1="51.8" x2="290.2" y2="51.8"/>
		<path class="st2" d="M248.8,142.6l2.7,0v-14.7c-9.5,0.1-19,0.1-27.2-2.7c-8.8-3-15.9-9.1-19.3-21.4l-0.5-1.9h2h45V86.5h-44.8h-2
			l0.6-2c1.3-4.6,3.6-8.9,6.6-12.5c2.9-3.4,6.6-6.2,10.9-8l1.3-0.6l0,0c8.1-3,17.9-2.8,26.3-2.7l1.1,0V46.4l-3,0
			c-8.6,0-17.2-0.1-25.5,2v0c-10.1,2.5-18.7,8.4-24.8,16.3c-5.9,7.6-9.4,17-9.7,27h0l0,1.5v0.1h0v0c-0.2,7.9,1.3,15.3,4.3,21.9
			c3,6.5,7.6,12.3,13.7,17.2C219.5,142.7,233,142.6,248.8,142.6z"/>
		<path class="st2" d="M325,142.5v-12.9v-1.9c-9.5,0.1-19.1,0.1-27.3-2.7c-8.9-3-15.9-9.3-19.2-21.8c-2-7.8-1.2-16.2,2.1-23.5
			c3.1-6.9,8.5-12.7,15.8-15.8l2.1-0.9v0.1c8-2.7,17.4-2.5,25.6-2.4l1.1,0V46.4l-3,0c-8.6,0-17.2-0.1-25.5,2v0
			c-10.1,2.5-18.7,8.4-24.8,16.3c-5.9,7.6-9.4,17-9.7,27h0l0,1.5v0.1h0v0c-0.2,7.9,1.3,15.3,4.3,21.9c3,6.5,7.6,12.3,13.7,17.2
			c13.1,10.4,26.6,10.3,42.4,10.2L325,142.5z"/>
		<path class="st2" d="M373.3,58.4c-20.2,0-36.6,16-36.6,35.8c0,19.8,16.4,35.8,36.6,35.8c20.2,0,36.6-16,36.6-35.8
			C409.9,74.4,393.5,58.4,373.3,58.4L373.3,58.4z M373.3,45.8c27.3,0,49.5,21.7,49.5,48.4c0,26.7-22.2,48.4-49.5,48.4
			c-27.3,0-49.5-21.7-49.5-48.4C323.8,67.4,346,45.8,373.3,45.8z"/>
		<path class="st4" d="M68.9,142.7C0,140.8-22.7,60.5,26.1,19.9c-0.1,0.6-0.1,1.3-0.1,1.9c0,11,7,20.4,16.8,24
			c-37.5,26.2-25.4,89.3,26,96.4L68.9,142.7z"/>
	</g>
</g>
</svg>
