<svg xmlns="http://www.w3.org/2000/svg" viewBox="8806.479 339.062 55.387 55.386"><defs><style>.a{fill:#95989a;}</style></defs><g transform="translate(7960)"><g transform="translate(13 -247)"><path class="a" d="M329.373,1049.246a27.693,27.693,0,1,1,27.693-27.693A27.693,27.693,0,0,1,329.373,1049.246Zm0-54.223a26.53,26.53,0,1,0,26.53,26.53A26.53,26.53,0,0,0,329.373,995.023Z" transform="translate(531.8 -407.798)"/><path class="a" d="M325.846,1026.98a8.835,8.835,0,1,1,3.539-.743,8.835,8.835,0,0,1-3.539.743Zm0-16.408a7.585,7.585,0,1,0,7.053,10.345h0a7.585,7.585,0,0,0-7.053-10.345Z" transform="translate(535.438 -404.13)"/><path class="a" d="M326.82,1011.571a.592.592,0,0,1-.223,0,.582.582,0,0,1-.309-.755l1.336-3.18a.582.582,0,0,1,1.064.445l-1.336,3.18a.582.582,0,0,1-.532.31Z" transform="translate(537.632 -404.596)"/><path class="a" d="M329.025,1008.99a2.58,2.58,0,1,1,1.831-4.442h0a2.574,2.574,0,0,1-1.745,4.43Zm0-4h0a1.423,1.423,0,0,0-.965,2.475,1.487,1.487,0,0,0,1.015.4,1.436,1.436,0,0,0,1-2.438h0a1.411,1.411,0,0,0-1.052-.383Z" transform="translate(537.679 -405.431)"/><path class="a" d="M320.62,1026.43a.5.5,0,0,1-.532-.755l1.336-3.18a.582.582,0,0,1,1.064.445l-1.336,3.18a.582.582,0,0,1-.532.309Z" transform="translate(536.16 -401.068)"/><path class="a" d="M320.266,1029.988a2.576,2.576,0,0,1-1.794-.718h0a2.574,2.574,0,0,1,1.745-4.43,2.66,2.66,0,0,1,1.831.731,2.574,2.574,0,0,1-1.794,4.429Zm-.99-1.559a1.423,1.423,0,1,0,1.98-2.042,1.438,1.438,0,0,0-1.015-.4,1.423,1.423,0,0,0-.965,2.475Z" transform="translate(535.599 -400.443)"/><path class="a" d="M333.549,1021.025a.582.582,0,0,1-.223,0l-3.18-1.336a.582.582,0,0,1,.445-1.064l3.18,1.336a.582.582,0,0,1-.223,1.114Z" transform="translate(538.489 -401.924)"/><path class="a" d="M335.092,1023.907a2.574,2.574,0,1,1,1.856-.779h0A2.572,2.572,0,0,1,335.092,1023.907Zm0-4h0a1.441,1.441,0,1,0,1.039,2.413h0a1.423,1.423,0,0,0-1.027-2.413Z" transform="translate(539.124 -401.886)"/><path class="a" d="M318.735,1014.835a.585.585,0,0,1-.223,0l-3.18-1.336a.582.582,0,1,1,.445-1.064l3.18,1.336a.582.582,0,0,1-.223,1.113Z" transform="translate(534.94 -403.406)"/><path class="a" d="M314.132,1015.147a2.574,2.574,0,1,1,1.856-.779A2.573,2.573,0,0,1,314.132,1015.147Zm0-4h0a1.449,1.449,0,1,0,.049,0Z" transform="translate(534.148 -403.966)"/><path class="a" d="M330.4,1014.878a.582.582,0,0,1-.223-1.114l3.193-1.3a.582.582,0,0,1,.433,1.076l-3.192,1.3a.578.578,0,0,1-.21.037Z" transform="translate(538.483 -403.388)"/><path class="a" d="M335.145,1015.24a2.58,2.58,0,1,1,0-5.16h0a2.58,2.58,0,1,1,0,5.16Zm0-4h0a1.423,1.423,0,0,0-.965,2.475,1.459,1.459,0,0,0,1.015.4,1.423,1.423,0,1,0,0-2.846Z" transform="translate(539.133 -403.947)"/><path class="a" d="M315.509,1021.008a.582.582,0,0,1-.223-1.114l3.193-1.3a.581.581,0,0,1,.433,1.076l-3.192,1.3a.577.577,0,0,1-.21.037Z" transform="translate(534.948 -401.932)"/><path class="a" d="M314.125,1023.87a2.58,2.58,0,0,1,0-5.16h0a2.58,2.58,0,1,1,0,5.16Zm0-4h0a1.423,1.423,0,0,0-.965,2.475,1.511,1.511,0,0,0,1.015.4,1.423,1.423,0,0,0,0-2.846Z" transform="translate(534.142 -401.898)"/><path class="a" d="M328.063,1026.522a.581.581,0,0,1-.532-.359l-1.3-3.193a.582.582,0,1,1,1.077-.433l1.3,3.193a.582.582,0,0,1-.532.792Z" transform="translate(537.615 -401.085)"/><path class="a" d="M328.924,1030.048a2.586,2.586,0,1,1,1.834-.775,2.574,2.574,0,0,1-1.834.775Zm0-.582Zm0-3.415h0a1.422,1.422,0,0,0-1.4,1.448,1.448,1.448,0,0,0,1.448,1.4,1.423,1.423,0,1,0,0-2.846Z" transform="translate(537.657 -400.429)"/><path class="a" d="M321.935,1011.631a.581.581,0,0,1-.532-.359l-1.312-3.192a.582.582,0,1,1,1.076-.433l1.312,3.193a.582.582,0,0,1-.532.792Z" transform="translate(536.157 -404.62)"/><path class="a" d="M320.285,1009.04a2.58,2.58,0,1,1,0-5.16h0a2.58,2.58,0,0,1,0,5.16Zm0-4a1.423,1.423,0,0,0-.965,2.475,1.461,1.461,0,0,0,1.015.4,1.423,1.423,0,1,0,0-2.846Z" transform="translate(535.605 -405.419)"/></g></g></svg>