<?xml version="1.0" encoding="utf-8"?>
<!-- Generator: Adobe Illustrator 21.0.0, SVG Export Plug-In . SVG Version: 6.00 Build 0)  -->
<svg version="1.1" id="Слой_1" xmlns="http://www.w3.org/2000/svg" xmlns:xlink="http://www.w3.org/1999/xlink" x="0px" y="0px"
	 viewBox="0 0 60.3 17.7" style="enable-background:new 0 0 60.3 17.7;" xml:space="preserve">
<style type="text/css">
	.st0{fill:#E29217;}
</style>
<path class="st0" d="M58.6,11.6c-0.2,0-0.3,0-0.5,0.1c-0.2,0.1-0.3,0.2-0.4,0.4c-0.1,0.2-0.1,0.3-0.1,0.5c0,0.2,0,0.3,0.1,0.5
	c0.1,0.2,0.2,0.3,0.4,0.4c0.2,0.1,0.3,0.1,0.5,0.1c0.2,0,0.3,0,0.5-0.1c0.2-0.1,0.3-0.2,0.4-0.4c0.1-0.2,0.1-0.3,0.1-0.5
	c0-0.2,0-0.3-0.1-0.5c-0.1-0.2-0.2-0.3-0.4-0.4C58.9,11.7,58.7,11.6,58.6,11.6 M58.6,11.4c0.2,0,0.4,0.1,0.6,0.2
	c0.2,0.1,0.4,0.3,0.5,0.5c0.1,0.2,0.2,0.4,0.2,0.7c0,0.2-0.1,0.4-0.2,0.6c-0.1,0.2-0.3,0.4-0.5,0.5C59,13.9,58.8,14,58.6,14
	c-0.2,0-0.4-0.1-0.6-0.2c-0.2-0.1-0.3-0.3-0.5-0.5c-0.1-0.2-0.2-0.4-0.2-0.6c0-0.2,0.1-0.4,0.2-0.7c0.1-0.2,0.3-0.4,0.5-0.5
	C58.2,11.4,58.4,11.4,58.6,11.4 M58.1,13.3v-1.4h0.4c0.2,0,0.3,0,0.3,0c0.1,0,0.1,0.1,0.2,0.1c0,0.1,0.1,0.1,0.1,0.2
	c0,0.1,0,0.2-0.1,0.3c-0.1,0.1-0.2,0.1-0.3,0.1c0,0,0.1,0,0.1,0.1c0.1,0.1,0.1,0.1,0.2,0.3l0.2,0.3h-0.3l-0.1-0.2
	c-0.1-0.2-0.2-0.3-0.2-0.3c0,0-0.1,0-0.2,0h-0.1v0.6H58.1z M58.3,12.5h0.3c0.1,0,0.2,0,0.2-0.1c0,0,0.1-0.1,0.1-0.1c0,0,0-0.1,0-0.1
	c0,0-0.1-0.1-0.1-0.1c0,0-0.1,0-0.2,0h-0.2V12.5z M57.9,5.8c0.1-0.6-0.6-0.7-1-0.6c-0.6,0.2-0.7,0.5-0.9,0.9
	c-0.4,0.8-0.7,1.6-1.1,2.5c-0.2,0.4-0.5,0.9-0.8,1c-0.5,0.1-0.8-0.4-1-0.7c-0.2-0.4-0.4-0.8-0.6-1.2c-0.2-0.4-1-2-1.3-2.2
	c-0.3-0.2-0.9-0.4-1.4-0.2c-0.5,0.3-0.1,0.8,0.1,1.2l2.3,4.8c0.4,0.9,1,1.6,0.4,2.7c-0.2,0.4-0.5,0.7-0.9,0.9
	c-1.2,0.8-2.3,0.1-2.7,0.8c-0.3,0.5,0,1,0.5,1.1c0.4,0.1,1.2,0,1.6-0.1c1-0.2,1.8-0.7,2.3-1.2c0.7-0.7,0.9-1.4,1.3-2.2
	c0.4-0.8,0.7-1.7,1.1-2.5c0.5-1.3,1.1-2.5,1.6-3.7C57.5,6.8,57.8,6.1,57.9,5.8 M4.5,4.9C3.1,5,1.6,5.4,1.1,6.8c-0.4,1,0,1.9,0.7,2.6
	c0.6,0.6,2.7,1.3,3.6,1.7c0.7,0.4,0.6,1.7-0.8,1.8c-1,0.1-2.1-0.3-3-0.5c-0.6-0.1-1,0-1.1,0.6c-0.1,0.6,0.4,0.8,0.8,1
	c1.8,0.5,4.2,0.9,5.9,0c0.9-0.4,1.4-1,1.5-2C8.9,9.5,6.4,9.2,5,8.6C4.3,8.3,3,7.7,3.9,6.8c0.5-0.6,2-0.6,2.9-0.3
	c0.5,0.1,1,0.4,1.3-0.1c0.3-0.5-0.1-0.9-0.5-1.1C6.8,5,5.4,4.9,4.5,4.9 M46.4,0.8c-2,0.1-3.3,1-3.9,2.4c-0.4,1-0.1,2-1.1,2.1
	c-0.6,0-0.8,0.2-1,0.6c-0.4,0.8,0,1.8,0.9,2c0.4,0.1,0.7,0.3,0.8,0.8c0.1,0.9-0.1,4,0.1,4.7c0.1,0.3,0.5,0.7,0.9,0.7
	c1.2,0.1,1.7-0.3,1.7-1.5V9.3c0-0.6,0-0.9,0.3-1.2c0.6-0.5,1.9,0.1,2.6-0.5c0.5-0.4,0.7-1.7-0.3-2.1c-0.5-0.2-1.7,0-2.2-0.1
	C45.1,5.2,45,5.1,45,4.8c0-0.5,0.1-1,0.4-1.2C46,3,47.1,3.2,48.1,3.1c1.5,0,1.6-2.4-0.1-2.3C47.5,0.8,46.9,0.8,46.4,0.8 M26.5,5.2
	c-0.8,0.2-0.8,0.8-0.8,1.6v6c0,1.3,1.4,1.5,1.9,0.8c0.2-0.3,0.2-0.5,0.2-0.9v-1.2c0-1.6-0.2-4,1.2-4.8c0.3-0.1,0.6-0.2,0.9-0.3
	c0.8,0,1,0.6,1,1.3c0.1,1.6,0,3.2,0,4.8c0,0.4,0,0.7,0.2,1c0.6,0.9,1.9,0.6,2-0.6c0.1-1.8-0.5-6.1,1.8-6.6c1.5-0.3,1.3,1.2,1.3,2.2
	c0,0.7-0.1,4.4,0.1,4.7c0.2,0.5,0.9,1,1.5,0.6c0.6-0.3,0.6-0.9,0.6-1.8l0-4.9c0-0.9-0.2-1.3-0.7-1.7c-0.8-0.5-2-0.4-2.9-0.1
	c-0.3,0.1-0.6,0.2-0.9,0.3c-0.8,0.1-1.2-0.2-1.8-0.4c-0.6-0.2-1.4-0.2-2.1,0c-0.6,0.2-1.1,0.6-1.9,0.4C27.6,5.6,27.2,5.1,26.5,5.2
	 M23.6,10.2c0.4-4-2.5-7.2-6-7.5c-3.9-0.3-6.9,2.6-7.2,6.2c-0.4,4,2.5,7.2,6,7.5C20.2,16.8,23.3,13.8,23.6,10.2 M16.6,7.2
	c1.4-0.3,2.5,0.8,2.7,2c0.2,1.5-0.8,2.6-1.9,2.8c-1.4,0.3-2.6-0.8-2.8-2C14.4,8.5,15.4,7.4,16.6,7.2"/>
</svg>
