<svg xmlns="http://www.w3.org/2000/svg" viewBox="8669 338.642 55.386 55.386"><defs><style>.a{fill:#95989a;}</style></defs><g transform="translate(7960)"><g transform="translate(-28 -247)"><path class="a" d="M251.4,1048.906a27.693,27.693,0,1,1,27.693-27.693,27.693,27.693,0,0,1-27.693,27.693Zm0-54.223a26.53,26.53,0,1,0,26.53,26.53A26.53,26.53,0,0,0,251.4,994.683Z" transform="translate(513.29 -407.878)"/><circle class="a" cx="3.217" cy="3.217" r="3.217" transform="translate(748.384 618.495)"/><circle class="a" cx="3.217" cy="3.217" r="3.217" transform="translate(748.384 610.402)"/><circle class="a" cx="3.217" cy="3.217" r="3.217" transform="translate(748.384 602.309)"/><circle class="a" cx="2.747" cy="2.747" r="2.747" transform="translate(756.068 622.949)"/><circle class="a" cx="2.747" cy="2.747" r="2.747" transform="translate(756.068 614.782)"/><circle class="a" cx="2.747" cy="2.747" r="2.747" transform="translate(756.068 606.628)"/><circle class="a" cx="2.747" cy="2.747" r="2.747" transform="translate(756.068 598.461)"/><circle class="a" cx="2.153" cy="2.153" r="2.153" transform="translate(763.542 619.905)"/><circle class="a" cx="2.153" cy="2.153" r="2.153" transform="translate(763.542 611.466)"/><circle class="a" cx="2.153" cy="2.153" r="2.153" transform="translate(763.542 603.04)"/><circle class="a" cx="1.844" cy="1.844" r="1.844" transform="translate(770.942 623.605)"/><circle class="a" cx="1.844" cy="1.844" r="1.844" transform="translate(770.942 615.686)"/><circle class="a" cx="1.844" cy="1.844" r="1.844" transform="translate(770.942 607.766)"/><circle class="a" cx="1.844" cy="1.844" r="1.844" transform="translate(770.942 599.859)"/><circle class="a" cx="1.448" cy="1.448" r="1.448" transform="translate(777.909 620.425)"/><circle class="a" cx="1.448" cy="1.448" r="1.448" transform="translate(777.909 611.899)"/><circle class="a" cx="1.448" cy="1.448" r="1.448" transform="translate(777.909 603.374)"/></g></g></svg>